<mxfile host="app.diagrams.net" modified="2023-06-16T05:00:40.838Z" agent="Mozilla/5.0 (Windows NT 10.0; Win64; x64) AppleWebKit/537.36 (KHTML, like Gecko) Chrome/114.0.0.0 Safari/537.36" version="21.3.8" etag="PwEwNKn1yW2UDPl9MO3r" type="github">
  <diagram name="第 1 页" id="USkIXy3lMWjE_0K4JNjP">
    <mxGraphModel>
      <root>
        <mxCell id="0" />
        <mxCell id="1" parent="0" />
      </root>
    </mxGraphModel>
  </diagram>
</mxfile>
